<mxfile host="app.diagrams.net" agent="Mozilla/5.0 (Windows NT 10.0; Win64; x64) AppleWebKit/537.36 (KHTML, like Gecko) Chrome/134.0.0.0 Safari/537.36" version="26.1.3">
  <diagram name="Page-1" id="8378b5f6-a2b2-b727-a746-972ab9d02e00">
    <mxGraphModel dx="1434" dy="752" grid="1" gridSize="10" guides="1" tooltips="1" connect="0" arrows="1" fold="1" page="1" pageScale="1.5" pageWidth="1169" pageHeight="827" background="none" math="0" shadow="0">
      <root>
        <mxCell id="0" />
        <mxCell id="1" parent="0" />
        <mxCell id="TeYNb7RfV9Psiy8Rglft-372" value="W3" style="fillColor=#23445D;strokeColor=#FFFFFF;strokeWidth=2;fontColor=#FFFFFF;fontStyle=1" vertex="1" parent="1">
          <mxGeometry x="1245.5" y="360" width="35" height="20" as="geometry" />
        </mxCell>
        <mxCell id="TeYNb7RfV9Psiy8Rglft-371" value="" style="strokeColor=#DEEDFF" vertex="1" parent="1">
          <mxGeometry x="1245.750000000002" y="380.00000000000387" width="35" height="340" as="geometry" />
        </mxCell>
        <mxCell id="TeYNb7RfV9Psiy8Rglft-328" value="" style="strokeColor=#DEEDFF" vertex="1" parent="1">
          <mxGeometry x="1178" y="380" width="35" height="340" as="geometry" />
        </mxCell>
        <mxCell id="TeYNb7RfV9Psiy8Rglft-329" value="" style="strokeColor=#DEEDFF" vertex="1" parent="1">
          <mxGeometry x="1212.500000000002" y="380.00000000000387" width="35" height="340" as="geometry" />
        </mxCell>
        <mxCell id="TeYNb7RfV9Psiy8Rglft-320" value="" style="strokeColor=#DEEDFF" vertex="1" parent="1">
          <mxGeometry x="1037.75" y="380" width="35" height="340" as="geometry" />
        </mxCell>
        <mxCell id="TeYNb7RfV9Psiy8Rglft-321" value="" style="strokeColor=#DEEDFF" vertex="1" parent="1">
          <mxGeometry x="1072.250000000002" y="380.00000000000387" width="35" height="340" as="geometry" />
        </mxCell>
        <mxCell id="TeYNb7RfV9Psiy8Rglft-322" value="" style="strokeColor=#DEEDFF" vertex="1" parent="1">
          <mxGeometry x="1106.750000000002" y="380.00000000000387" width="35" height="340" as="geometry" />
        </mxCell>
        <mxCell id="TeYNb7RfV9Psiy8Rglft-323" value="" style="strokeColor=#DEEDFF" vertex="1" parent="1">
          <mxGeometry x="1142.000000000002" y="380.00000000000387" width="35" height="340" as="geometry" />
        </mxCell>
        <mxCell id="TeYNb7RfV9Psiy8Rglft-324" value="" style="strokeColor=#DEEDFF" vertex="1" parent="1">
          <mxGeometry x="897.5" y="380" width="35" height="340" as="geometry" />
        </mxCell>
        <mxCell id="TeYNb7RfV9Psiy8Rglft-325" value="" style="strokeColor=#DEEDFF" vertex="1" parent="1">
          <mxGeometry x="932.000000000002" y="380.00000000000387" width="35" height="340" as="geometry" />
        </mxCell>
        <mxCell id="TeYNb7RfV9Psiy8Rglft-326" value="" style="strokeColor=#DEEDFF" vertex="1" parent="1">
          <mxGeometry x="966.500000000002" y="380.00000000000387" width="35" height="340" as="geometry" />
        </mxCell>
        <mxCell id="TeYNb7RfV9Psiy8Rglft-327" value="" style="strokeColor=#DEEDFF" vertex="1" parent="1">
          <mxGeometry x="1001.750000000002" y="380.00000000000387" width="35" height="340" as="geometry" />
        </mxCell>
        <mxCell id="TeYNb7RfV9Psiy8Rglft-316" value="" style="strokeColor=#DEEDFF" vertex="1" parent="1">
          <mxGeometry x="757.25" y="380" width="35" height="340" as="geometry" />
        </mxCell>
        <mxCell id="TeYNb7RfV9Psiy8Rglft-317" value="" style="strokeColor=#DEEDFF" vertex="1" parent="1">
          <mxGeometry x="791.750000000002" y="380.00000000000387" width="35" height="340" as="geometry" />
        </mxCell>
        <mxCell id="TeYNb7RfV9Psiy8Rglft-318" value="" style="strokeColor=#DEEDFF" vertex="1" parent="1">
          <mxGeometry x="826.250000000002" y="380.00000000000387" width="35" height="340" as="geometry" />
        </mxCell>
        <mxCell id="TeYNb7RfV9Psiy8Rglft-319" value="" style="strokeColor=#DEEDFF" vertex="1" parent="1">
          <mxGeometry x="861.500000000002" y="380.00000000000387" width="35" height="340" as="geometry" />
        </mxCell>
        <mxCell id="TeYNb7RfV9Psiy8Rglft-312" value="W2" style="fillColor=#23445D;strokeColor=#FFFFFF;strokeWidth=2;fontColor=#FFFFFF;fontStyle=1" vertex="1" parent="1">
          <mxGeometry x="1212.25" y="360" width="35" height="20" as="geometry" />
        </mxCell>
        <mxCell id="TeYNb7RfV9Psiy8Rglft-315" value="W1" style="fillColor=#23445D;strokeColor=#FFFFFF;strokeWidth=2;fontColor=#FFFFFF;fontStyle=1" vertex="1" parent="1">
          <mxGeometry x="1176.75" y="360" width="35" height="20" as="geometry" />
        </mxCell>
        <mxCell id="TeYNb7RfV9Psiy8Rglft-304" value="W2" style="fillColor=#23445D;strokeColor=#FFFFFF;strokeWidth=2;fontColor=#FFFFFF;fontStyle=1" vertex="1" parent="1">
          <mxGeometry x="1072.25" y="360" width="35" height="20" as="geometry" />
        </mxCell>
        <mxCell id="TeYNb7RfV9Psiy8Rglft-305" value="W3" style="fillColor=#23445D;strokeColor=#FFFFFF;strokeWidth=2;fontColor=#FFFFFF;fontStyle=1" vertex="1" parent="1">
          <mxGeometry x="1106.75" y="360" width="35" height="20" as="geometry" />
        </mxCell>
        <mxCell id="TeYNb7RfV9Psiy8Rglft-306" value="W4" style="fillColor=#23445D;strokeColor=#FFFFFF;strokeWidth=2;fontColor=#FFFFFF;fontStyle=1" vertex="1" parent="1">
          <mxGeometry x="1142" y="360" width="35" height="20" as="geometry" />
        </mxCell>
        <mxCell id="TeYNb7RfV9Psiy8Rglft-307" value="W1" style="fillColor=#23445D;strokeColor=#FFFFFF;strokeWidth=2;fontColor=#FFFFFF;fontStyle=1" vertex="1" parent="1">
          <mxGeometry x="1036.75" y="360" width="35" height="20" as="geometry" />
        </mxCell>
        <mxCell id="TeYNb7RfV9Psiy8Rglft-308" value="W1" style="fillColor=#23445D;strokeColor=#FFFFFF;strokeWidth=2;fontColor=#FFFFFF;fontStyle=1" vertex="1" parent="1">
          <mxGeometry x="896.5" y="360" width="35" height="20" as="geometry" />
        </mxCell>
        <mxCell id="TeYNb7RfV9Psiy8Rglft-309" value="W2" style="fillColor=#23445D;strokeColor=#FFFFFF;strokeWidth=2;fontColor=#FFFFFF;fontStyle=1" vertex="1" parent="1">
          <mxGeometry x="932" y="360" width="35" height="20" as="geometry" />
        </mxCell>
        <mxCell id="TeYNb7RfV9Psiy8Rglft-310" value="W3" style="fillColor=#23445D;strokeColor=#FFFFFF;strokeWidth=2;fontColor=#FFFFFF;fontStyle=1" vertex="1" parent="1">
          <mxGeometry x="966.5" y="360" width="35" height="20" as="geometry" />
        </mxCell>
        <mxCell id="TeYNb7RfV9Psiy8Rglft-311" value="W4" style="fillColor=#23445D;strokeColor=#FFFFFF;strokeWidth=2;fontColor=#FFFFFF;fontStyle=1" vertex="1" parent="1">
          <mxGeometry x="1001.75" y="360" width="35" height="20" as="geometry" />
        </mxCell>
        <mxCell id="TeYNb7RfV9Psiy8Rglft-283" value="W2" style="fillColor=#23445D;strokeColor=#FFFFFF;strokeWidth=2;fontColor=#FFFFFF;fontStyle=1" vertex="1" parent="1">
          <mxGeometry x="792.75" y="360" width="35" height="20" as="geometry" />
        </mxCell>
        <mxCell id="TeYNb7RfV9Psiy8Rglft-284" value="W3" style="fillColor=#23445D;strokeColor=#FFFFFF;strokeWidth=2;fontColor=#FFFFFF;fontStyle=1" vertex="1" parent="1">
          <mxGeometry x="827.25" y="360" width="35" height="20" as="geometry" />
        </mxCell>
        <mxCell id="TeYNb7RfV9Psiy8Rglft-285" value="W4" style="fillColor=#23445D;strokeColor=#FFFFFF;strokeWidth=2;fontColor=#FFFFFF;fontStyle=1" vertex="1" parent="1">
          <mxGeometry x="862.5" y="360" width="35" height="20" as="geometry" />
        </mxCell>
        <mxCell id="TeYNb7RfV9Psiy8Rglft-282" value="W1" style="fillColor=#23445D;strokeColor=#FFFFFF;strokeWidth=2;fontColor=#FFFFFF;fontStyle=1" vertex="1" parent="1">
          <mxGeometry x="757.25" y="360" width="35" height="20" as="geometry" />
        </mxCell>
        <mxCell id="63" value="1" style="strokeColor=#DEEDFF;fillColor=#ADC3D9" parent="1" vertex="1">
          <mxGeometry x="235" y="380" width="35" height="20" as="geometry" />
        </mxCell>
        <mxCell id="64" value="Vollständige Projektdurchführung" style="align=left;strokeColor=#DEEDFF;fillColor=#ADC3D9" parent="1" vertex="1">
          <mxGeometry x="270" y="380" width="205" height="20" as="geometry" />
        </mxCell>
        <mxCell id="65" value="17 Wochen" style="strokeColor=#DEEDFF;fillColor=#ADC3D9" parent="1" vertex="1">
          <mxGeometry x="475.50000000000176" y="380" width="70" height="20" as="geometry" />
        </mxCell>
        <mxCell id="66" value="17.02.25" style="strokeColor=#DEEDFF;fillColor=#ADC3D9" parent="1" vertex="1">
          <mxGeometry x="545.500000000002" y="380" width="70" height="20" as="geometry" />
        </mxCell>
        <mxCell id="67" value="13.06.25" style="strokeColor=#DEEDFF;fillColor=#ADC3D9" parent="1" vertex="1">
          <mxGeometry x="615.0000000000016" y="380.0000000000002" width="70" height="20" as="geometry" />
        </mxCell>
        <mxCell id="69" value="2" style="strokeColor=#DEEDFF;fillColor=#CCE5FF" parent="1" vertex="1">
          <mxGeometry x="235.00000000000026" y="399.9999999999999" width="35" height="20" as="geometry" />
        </mxCell>
        <mxCell id="70" value="Planung" style="align=left;strokeColor=#DEEDFF;fillColor=#CCE5FF" parent="1" vertex="1">
          <mxGeometry x="270.0000000000002" y="399.9999999999999" width="205" height="20" as="geometry" />
        </mxCell>
        <mxCell id="71" value="3 Wochen" style="strokeColor=#DEEDFF;fillColor=#CCE5FF" parent="1" vertex="1">
          <mxGeometry x="475.500000000002" y="399.99999999999983" width="70" height="20" as="geometry" />
        </mxCell>
        <mxCell id="72" value="17.02.25" style="strokeColor=#DEEDFF;fillColor=#CCE5FF" parent="1" vertex="1">
          <mxGeometry x="545.5000000000023" y="399.99999999999983" width="70" height="20" as="geometry" />
        </mxCell>
        <mxCell id="73" value="07.03.25" style="strokeColor=#DEEDFF;fillColor=#CCE5FF" parent="1" vertex="1">
          <mxGeometry x="615.0000000000018" y="400.0000000000001" width="70" height="20" as="geometry" />
        </mxCell>
        <mxCell id="74" value="3" style="strokeColor=#DEEDFF" parent="1" vertex="1">
          <mxGeometry x="235.00000000000028" y="419.9999999999998" width="35" height="20" as="geometry" />
        </mxCell>
        <mxCell id="75" value="Betreuer Meetings festlegen" style="align=left;strokeColor=#DEEDFF" parent="1" vertex="1">
          <mxGeometry x="270.0000000000003" y="419.9999999999998" width="205" height="20.000000000000014" as="geometry" />
        </mxCell>
        <mxCell id="76" value="1 Woche" style="strokeColor=#DEEDFF" parent="1" vertex="1">
          <mxGeometry x="475.500000000002" y="419.9999999999997" width="70" height="20" as="geometry" />
        </mxCell>
        <mxCell id="77" value="17.02.25" style="strokeColor=#DEEDFF" parent="1" vertex="1">
          <mxGeometry x="545.5000000000023" y="419.9999999999997" width="70" height="20" as="geometry" />
        </mxCell>
        <mxCell id="78" value="21.02.25" style="strokeColor=#DEEDFF" parent="1" vertex="1">
          <mxGeometry x="615.0000000000018" y="420" width="70" height="20" as="geometry" />
        </mxCell>
        <mxCell id="79" value="4" style="strokeColor=#DEEDFF" parent="1" vertex="1">
          <mxGeometry x="235" y="440.00000000000017" width="35" height="20" as="geometry" />
        </mxCell>
        <mxCell id="80" value="Planung Projektablauf" style="align=left;strokeColor=#DEEDFF" parent="1" vertex="1">
          <mxGeometry x="270" y="440.00000000000017" width="205" height="20" as="geometry" />
        </mxCell>
        <mxCell id="81" value="2 Wochen" style="strokeColor=#DEEDFF" parent="1" vertex="1">
          <mxGeometry x="475.5000000000017" y="440.0000000000001" width="70" height="20" as="geometry" />
        </mxCell>
        <mxCell id="82" value="24.02.25" style="strokeColor=#DEEDFF" parent="1" vertex="1">
          <mxGeometry x="545.500000000002" y="440.0000000000001" width="70" height="20" as="geometry" />
        </mxCell>
        <mxCell id="83" value="07.03.25" style="strokeColor=#DEEDFF" parent="1" vertex="1">
          <mxGeometry x="615.0000000000015" y="440.0000000000004" width="70" height="20" as="geometry" />
        </mxCell>
        <mxCell id="104" value="9" style="strokeColor=#DEEDFF;fillColor=#CCE5FF" parent="1" vertex="1">
          <mxGeometry x="235.00000000000037" y="540.000000000001" width="35" height="20" as="geometry" />
        </mxCell>
        <mxCell id="105" value="Implementation" style="align=left;strokeColor=#DEEDFF;fillColor=#CCE5FF" parent="1" vertex="1">
          <mxGeometry x="270.00000000000034" y="540.000000000001" width="205" height="20.00000000000003" as="geometry" />
        </mxCell>
        <mxCell id="106" value="8 Wochen" style="strokeColor=#DEEDFF;fillColor=#CCE5FF" parent="1" vertex="1">
          <mxGeometry x="475.5000000000021" y="540.0000000000009" width="70" height="20" as="geometry" />
        </mxCell>
        <mxCell id="107" value="31.03.25" style="strokeColor=#DEEDFF;fillColor=#CCE5FF" parent="1" vertex="1">
          <mxGeometry x="545.5000000000025" y="540.0000000000009" width="70" height="20" as="geometry" />
        </mxCell>
        <mxCell id="108" value="23.05.25" style="strokeColor=#DEEDFF;fillColor=#CCE5FF" parent="1" vertex="1">
          <mxGeometry x="615.0000000000018" y="540.0000000000013" width="70" height="20" as="geometry" />
        </mxCell>
        <mxCell id="109" value="10" style="strokeColor=#DEEDFF" parent="1" vertex="1">
          <mxGeometry x="235.00000000000028" y="560.000000000001" width="35" height="20" as="geometry" />
        </mxCell>
        <mxCell id="110" value="Auswahl / Erstellung Dataset" style="align=left;strokeColor=#DEEDFF" parent="1" vertex="1">
          <mxGeometry x="270.0000000000003" y="560.000000000001" width="205" height="20" as="geometry" />
        </mxCell>
        <mxCell id="111" value="2 Wochen" style="strokeColor=#DEEDFF" parent="1" vertex="1">
          <mxGeometry x="475.50000000000205" y="560.0000000000009" width="70" height="20" as="geometry" />
        </mxCell>
        <mxCell id="112" value="31.03.25" style="strokeColor=#DEEDFF" parent="1" vertex="1">
          <mxGeometry x="545.5000000000023" y="560.0000000000009" width="70" height="20" as="geometry" />
        </mxCell>
        <mxCell id="113" value="11.04.25" style="strokeColor=#DEEDFF" parent="1" vertex="1">
          <mxGeometry x="615.0000000000018" y="560.0000000000013" width="70" height="20" as="geometry" />
        </mxCell>
        <mxCell id="114" value="11" style="strokeColor=#DEEDFF" parent="1" vertex="1">
          <mxGeometry x="235.00000000000028" y="580.0000000000013" width="35" height="20" as="geometry" />
        </mxCell>
        <mxCell id="115" value="Denoiser erstellen" style="align=left;strokeColor=#DEEDFF" parent="1" vertex="1">
          <mxGeometry x="270.0000000000003" y="580.0000000000013" width="205" height="20" as="geometry" />
        </mxCell>
        <mxCell id="116" value="3 Wochen" style="strokeColor=#DEEDFF" parent="1" vertex="1">
          <mxGeometry x="475.50000000000205" y="580.0000000000011" width="70" height="20" as="geometry" />
        </mxCell>
        <mxCell id="117" value="14.04.25" style="strokeColor=#DEEDFF" parent="1" vertex="1">
          <mxGeometry x="545.5000000000023" y="580.0000000000011" width="70" height="20" as="geometry" />
        </mxCell>
        <mxCell id="118" value="02.05.25" style="strokeColor=#DEEDFF" parent="1" vertex="1">
          <mxGeometry x="615.0000000000018" y="580.0000000000015" width="70" height="20" as="geometry" />
        </mxCell>
        <mxCell id="119" value="12" style="strokeColor=#DEEDFF" parent="1" vertex="1">
          <mxGeometry x="234.99999999999997" y="600.0000000000016" width="35" height="20" as="geometry" />
        </mxCell>
        <mxCell id="120" value="Modell trainieren" style="align=left;strokeColor=#DEEDFF" parent="1" vertex="1">
          <mxGeometry x="270" y="600.0000000000016" width="205" height="20" as="geometry" />
        </mxCell>
        <mxCell id="121" value="1 Woche" style="strokeColor=#DEEDFF" parent="1" vertex="1">
          <mxGeometry x="475.5000000000017" y="600.0000000000015" width="70" height="20" as="geometry" />
        </mxCell>
        <mxCell id="122" value="05.05.25" style="strokeColor=#DEEDFF" parent="1" vertex="1">
          <mxGeometry x="545.500000000002" y="600.0000000000015" width="70" height="20" as="geometry" />
        </mxCell>
        <mxCell id="123" value="09.05.25" style="strokeColor=#DEEDFF" parent="1" vertex="1">
          <mxGeometry x="615.0000000000015" y="600.0000000000018" width="70" height="20" as="geometry" />
        </mxCell>
        <mxCell id="124" value="13" style="strokeColor=#DEEDFF" parent="1" vertex="1">
          <mxGeometry x="235" y="620.0000000000014" width="35" height="20" as="geometry" />
        </mxCell>
        <mxCell id="125" value="Modell testen" style="align=left;strokeColor=#DEEDFF" parent="1" vertex="1">
          <mxGeometry x="270" y="620.0000000000014" width="205" height="20" as="geometry" />
        </mxCell>
        <mxCell id="126" value="1 Woche" style="strokeColor=#DEEDFF" parent="1" vertex="1">
          <mxGeometry x="475.5000000000017" y="620.0000000000014" width="70" height="20" as="geometry" />
        </mxCell>
        <mxCell id="127" value="12.05.25" style="strokeColor=#DEEDFF" parent="1" vertex="1">
          <mxGeometry x="545.500000000002" y="620.0000000000014" width="70" height="20" as="geometry" />
        </mxCell>
        <mxCell id="128" value="16.05.25" style="strokeColor=#DEEDFF" parent="1" vertex="1">
          <mxGeometry x="615.0000000000015" y="620.0000000000016" width="70" height="20" as="geometry" />
        </mxCell>
        <mxCell id="129" value="14" style="strokeColor=#DEEDFF" parent="1" vertex="1">
          <mxGeometry x="234.99999999999972" y="640.0000000000018" width="35" height="20" as="geometry" />
        </mxCell>
        <mxCell id="130" value="Denoiser vergleichen" style="align=left;strokeColor=#DEEDFF" parent="1" vertex="1">
          <mxGeometry x="269.9999999999997" y="640.0000000000018" width="205" height="20" as="geometry" />
        </mxCell>
        <mxCell id="131" value="1 Woche" style="strokeColor=#DEEDFF" parent="1" vertex="1">
          <mxGeometry x="475.5000000000014" y="640.0000000000018" width="70" height="20" as="geometry" />
        </mxCell>
        <mxCell id="132" value="19.05.25" style="strokeColor=#DEEDFF" parent="1" vertex="1">
          <mxGeometry x="545.5000000000018" y="640.0000000000018" width="70" height="20" as="geometry" />
        </mxCell>
        <mxCell id="133" value="23.05.25" style="strokeColor=#DEEDFF" parent="1" vertex="1">
          <mxGeometry x="615.0000000000011" y="640.000000000002" width="70" height="20" as="geometry" />
        </mxCell>
        <mxCell id="139" value="15" style="strokeColor=#DEEDFF;fillColor=#CCE5FF" parent="1" vertex="1">
          <mxGeometry x="235.4999999999996" y="660.000000000002" width="35" height="20" as="geometry" />
        </mxCell>
        <mxCell id="140" value="Finalisierung" style="align=left;strokeColor=#DEEDFF;fillColor=#CCE5FF" parent="1" vertex="1">
          <mxGeometry x="270.4999999999996" y="660.000000000002" width="205" height="20" as="geometry" />
        </mxCell>
        <mxCell id="141" value="3 Wochen" style="strokeColor=#DEEDFF;fillColor=#CCE5FF" parent="1" vertex="1">
          <mxGeometry x="476.00000000000136" y="660.000000000002" width="70" height="20" as="geometry" />
        </mxCell>
        <mxCell id="142" value="26.05.25" style="strokeColor=#DEEDFF;fillColor=#CCE5FF" parent="1" vertex="1">
          <mxGeometry x="546.0000000000016" y="660.000000000002" width="70" height="20" as="geometry" />
        </mxCell>
        <mxCell id="143" value="13.06.25" style="strokeColor=#DEEDFF;fillColor=#CCE5FF" parent="1" vertex="1">
          <mxGeometry x="615.5000000000011" y="660.0000000000023" width="70" height="20" as="geometry" />
        </mxCell>
        <mxCell id="144" value="16" style="strokeColor=#DEEDFF" parent="1" vertex="1">
          <mxGeometry x="235.500000000001" y="680.0000000000023" width="35" height="20" as="geometry" />
        </mxCell>
        <mxCell id="145" value="Dokumentation abschliessen" style="align=left;strokeColor=#DEEDFF" parent="1" vertex="1">
          <mxGeometry x="270.500000000001" y="680.0000000000023" width="205" height="20" as="geometry" />
        </mxCell>
        <mxCell id="146" value="2 Wochen" style="strokeColor=#DEEDFF" parent="1" vertex="1">
          <mxGeometry x="476.00000000000273" y="680.0000000000023" width="70" height="20" as="geometry" />
        </mxCell>
        <mxCell id="147" value="26.05.25" style="strokeColor=#DEEDFF" parent="1" vertex="1">
          <mxGeometry x="546.000000000003" y="680.0000000000023" width="70" height="20" as="geometry" />
        </mxCell>
        <mxCell id="148" value="06.06.25" style="strokeColor=#DEEDFF" parent="1" vertex="1">
          <mxGeometry x="615.5000000000025" y="680.0000000000025" width="70" height="20" as="geometry" />
        </mxCell>
        <mxCell id="149" value="17" style="strokeColor=#DEEDFF" parent="1" vertex="1">
          <mxGeometry x="235.50000000000102" y="700.0000000000022" width="35" height="20" as="geometry" />
        </mxCell>
        <mxCell id="150" value="Präsentation und Video erstellen" style="align=left;strokeColor=#DEEDFF" parent="1" vertex="1">
          <mxGeometry x="270.500000000001" y="700.0000000000022" width="205" height="20" as="geometry" />
        </mxCell>
        <mxCell id="151" value="1 Woche" style="strokeColor=#DEEDFF" parent="1" vertex="1">
          <mxGeometry x="476.00000000000273" y="700.000000000002" width="70" height="20" as="geometry" />
        </mxCell>
        <mxCell id="152" value="09.06.25" style="strokeColor=#DEEDFF" parent="1" vertex="1">
          <mxGeometry x="546.000000000003" y="700.000000000002" width="70" height="20" as="geometry" />
        </mxCell>
        <mxCell id="153" value="13.06.25" style="strokeColor=#DEEDFF" parent="1" vertex="1">
          <mxGeometry x="615.5000000000025" y="700.0000000000024" width="70" height="20" as="geometry" />
        </mxCell>
        <mxCell id="196" value="" style="strokeColor=#DEEDFF" parent="1" vertex="1">
          <mxGeometry x="686" y="380" width="35" height="340" as="geometry" />
        </mxCell>
        <mxCell id="197" value="" style="strokeColor=#DEEDFF" parent="1" vertex="1">
          <mxGeometry x="721.250000000002" y="380.00000000000387" width="35" height="340" as="geometry" />
        </mxCell>
        <mxCell id="2" value="Aufgabe" style="fillColor=#23445D;strokeColor=#FFFFFF;strokeWidth=2;fontColor=#FFFFFF;fontStyle=1" parent="1" vertex="1">
          <mxGeometry x="270" y="340" width="205" height="40" as="geometry" />
        </mxCell>
        <mxCell id="3" value="#" style="fillColor=#23445D;strokeColor=#FFFFFF;strokeWidth=2;fontColor=#FFFFFF;fontStyle=1" parent="1" vertex="1">
          <mxGeometry x="235" y="340" width="35" height="40" as="geometry" />
        </mxCell>
        <mxCell id="4" value="  Februar" style="fillColor=#23445D;strokeColor=#FFFFFF;strokeWidth=2;fontColor=#FFFFFF;fontStyle=1" parent="1" vertex="1">
          <mxGeometry x="687.25" y="340" width="70" height="20" as="geometry" />
        </mxCell>
        <mxCell id="9" value="W3" style="fillColor=#23445D;strokeColor=#FFFFFF;strokeWidth=2;fontColor=#FFFFFF;fontStyle=1" parent="1" vertex="1">
          <mxGeometry x="687.25" y="360" width="35" height="20" as="geometry" />
        </mxCell>
        <mxCell id="11" value="W4" style="fillColor=#23445D;strokeColor=#FFFFFF;strokeWidth=2;fontColor=#FFFFFF;fontStyle=1" parent="1" vertex="1">
          <mxGeometry x="722.25" y="360" width="35" height="20" as="geometry" />
        </mxCell>
        <mxCell id="12" value="Dauer" style="fillColor=#23445D;strokeColor=#FFFFFF;strokeWidth=2;fontColor=#FFFFFF;fontStyle=1" parent="1" vertex="1">
          <mxGeometry x="475.50000000000176" y="340.00000000000006" width="70" height="40.00000000000001" as="geometry" />
        </mxCell>
        <mxCell id="13" value="Start" style="fillColor=#23445D;strokeColor=#FFFFFF;strokeWidth=2;fontColor=#FFFFFF;fontStyle=1" parent="1" vertex="1">
          <mxGeometry x="545.5000000000018" y="340.00000000000006" width="70" height="40.00000000000001" as="geometry" />
        </mxCell>
        <mxCell id="14" value="Ende" style="fillColor=#23445D;strokeColor=#FFFFFF;strokeWidth=2;fontColor=#FFFFFF;fontStyle=1" parent="1" vertex="1">
          <mxGeometry x="615.0000000000019" y="340.0000000000001" width="70" height="40.00000000000001" as="geometry" />
        </mxCell>
        <mxCell id="15" value="März" style="fillColor=#23445D;strokeColor=#FFFFFF;strokeWidth=2;fontColor=#FFFFFF;fontStyle=1" parent="1" vertex="1">
          <mxGeometry x="757.0000000000018" y="340.0000000000001" width="140" height="20" as="geometry" />
        </mxCell>
        <mxCell id="23" value="April" style="fillColor=#23445D;strokeColor=#FFFFFF;strokeWidth=2;fontColor=#FFFFFF;fontStyle=1" parent="1" vertex="1">
          <mxGeometry x="897.0000000000018" y="340" width="140" height="20" as="geometry" />
        </mxCell>
        <mxCell id="31" value="Mai" style="fillColor=#23445D;strokeColor=#FFFFFF;strokeWidth=2;fontColor=#FFFFFF;fontStyle=1" parent="1" vertex="1">
          <mxGeometry x="1037.0000000000018" y="340.00000000000006" width="140" height="20" as="geometry" />
        </mxCell>
        <mxCell id="39" value="Juni" style="fillColor=#23445D;strokeColor=#FFFFFF;strokeWidth=2;fontColor=#FFFFFF;fontStyle=1" parent="1" vertex="1">
          <mxGeometry x="1177" y="340" width="103.5" height="20" as="geometry" />
        </mxCell>
        <mxCell id="242" value="" style="shape=mxgraph.flowchart.process;fillColor=#AE4132;strokeColor=#000000;strokeWidth=2;opacity=50" parent="1" vertex="1">
          <mxGeometry x="686.5" y="400" width="105" height="20" as="geometry" />
        </mxCell>
        <mxCell id="243" value="" style="shape=mxgraph.arrows.bent_right_arrow;fillColor=#AE4132;strokeColor=none;strokeWidth=2;direction=south" parent="1" vertex="1">
          <mxGeometry x="720.500000000002" y="429.99999999999966" width="10.000000000000341" height="9.99999999999983" as="geometry" />
        </mxCell>
        <mxCell id="244" value="" style="shape=mxgraph.flowchart.process;fillColor=#AE4132;strokeColor=none;strokeWidth=2;opacity=50" parent="1" vertex="1">
          <mxGeometry x="685.5" y="420" width="35" height="20" as="geometry" />
        </mxCell>
        <mxCell id="245" value="" style="shape=mxgraph.flowchart.process;fillColor=#AE4132;strokeColor=none;strokeWidth=2;opacity=50" parent="1" vertex="1">
          <mxGeometry x="721" y="440" width="70" height="20" as="geometry" />
        </mxCell>
        <mxCell id="254" value="" style="shape=mxgraph.flowchart.process;fillColor=#AE4132;strokeColor=#000000;strokeWidth=2;opacity=100" parent="1" vertex="1">
          <mxGeometry x="686.5" y="380" width="593" height="20" as="geometry" />
        </mxCell>
        <mxCell id="256" value="" style="shape=mxgraph.flowchart.process;fillColor=#AE4132;strokeColor=#000000;strokeWidth=2;opacity=50" parent="1" vertex="1">
          <mxGeometry x="790" y="460" width="106.25" height="20" as="geometry" />
        </mxCell>
        <mxCell id="268" value="" style="shape=mxgraph.flowchart.process;fillColor=#AE4132;strokeColor=#000000;strokeWidth=2;opacity=50" parent="1" vertex="1">
          <mxGeometry x="896" y="540" width="282" height="20" as="geometry" />
        </mxCell>
        <mxCell id="TeYNb7RfV9Psiy8Rglft-334" value="5" style="strokeColor=#DEEDFF;fillColor=#CCE5FF" vertex="1" parent="1">
          <mxGeometry x="235.00000000000037" y="460.000000000001" width="35" height="20" as="geometry" />
        </mxCell>
        <mxCell id="TeYNb7RfV9Psiy8Rglft-335" value="Forschung" style="align=left;strokeColor=#DEEDFF;fillColor=#CCE5FF" vertex="1" parent="1">
          <mxGeometry x="270.00000000000034" y="460.000000000001" width="205" height="20.00000000000003" as="geometry" />
        </mxCell>
        <mxCell id="TeYNb7RfV9Psiy8Rglft-336" value="3 Wochen" style="strokeColor=#DEEDFF;fillColor=#CCE5FF" vertex="1" parent="1">
          <mxGeometry x="475.5000000000021" y="460.0000000000009" width="70" height="20" as="geometry" />
        </mxCell>
        <mxCell id="TeYNb7RfV9Psiy8Rglft-337" value="10.03.25" style="strokeColor=#DEEDFF;fillColor=#CCE5FF" vertex="1" parent="1">
          <mxGeometry x="545.5000000000025" y="460.0000000000009" width="70" height="20" as="geometry" />
        </mxCell>
        <mxCell id="TeYNb7RfV9Psiy8Rglft-338" value="28.03.25" style="strokeColor=#DEEDFF;fillColor=#CCE5FF" vertex="1" parent="1">
          <mxGeometry x="615.0000000000018" y="460.00000000000125" width="70" height="20" as="geometry" />
        </mxCell>
        <mxCell id="TeYNb7RfV9Psiy8Rglft-339" value="6" style="strokeColor=#DEEDFF" vertex="1" parent="1">
          <mxGeometry x="235.00000000000028" y="480.000000000001" width="35" height="20" as="geometry" />
        </mxCell>
        <mxCell id="TeYNb7RfV9Psiy8Rglft-340" value="Wie funktioniert Path Tracing" style="align=left;strokeColor=#DEEDFF" vertex="1" parent="1">
          <mxGeometry x="270.0000000000003" y="480.000000000001" width="205" height="20" as="geometry" />
        </mxCell>
        <mxCell id="TeYNb7RfV9Psiy8Rglft-341" value="1 Woche" style="strokeColor=#DEEDFF" vertex="1" parent="1">
          <mxGeometry x="475.50000000000205" y="480.0000000000009" width="70" height="20" as="geometry" />
        </mxCell>
        <mxCell id="TeYNb7RfV9Psiy8Rglft-342" value="10.03.25" style="strokeColor=#DEEDFF" vertex="1" parent="1">
          <mxGeometry x="545.5000000000023" y="480.0000000000009" width="70" height="20" as="geometry" />
        </mxCell>
        <mxCell id="TeYNb7RfV9Psiy8Rglft-343" value="14.03.25" style="strokeColor=#DEEDFF" vertex="1" parent="1">
          <mxGeometry x="615.0000000000018" y="480.00000000000125" width="70" height="20" as="geometry" />
        </mxCell>
        <mxCell id="TeYNb7RfV9Psiy8Rglft-344" value="7" style="strokeColor=#DEEDFF" vertex="1" parent="1">
          <mxGeometry x="235.00000000000028" y="500.00000000000125" width="35" height="20" as="geometry" />
        </mxCell>
        <mxCell id="TeYNb7RfV9Psiy8Rglft-345" value="Was ist Denoising" style="align=left;strokeColor=#DEEDFF" vertex="1" parent="1">
          <mxGeometry x="270.0000000000003" y="500.00000000000125" width="205" height="20" as="geometry" />
        </mxCell>
        <mxCell id="TeYNb7RfV9Psiy8Rglft-346" value="1 Woche" style="strokeColor=#DEEDFF" vertex="1" parent="1">
          <mxGeometry x="475.50000000000205" y="500.00000000000114" width="70" height="20" as="geometry" />
        </mxCell>
        <mxCell id="TeYNb7RfV9Psiy8Rglft-347" value="17.03.25" style="strokeColor=#DEEDFF" vertex="1" parent="1">
          <mxGeometry x="545.5000000000023" y="500.00000000000114" width="70" height="20" as="geometry" />
        </mxCell>
        <mxCell id="TeYNb7RfV9Psiy8Rglft-348" value="21.03.25" style="strokeColor=#DEEDFF" vertex="1" parent="1">
          <mxGeometry x="615.0000000000018" y="500.0000000000015" width="70" height="20" as="geometry" />
        </mxCell>
        <mxCell id="TeYNb7RfV9Psiy8Rglft-349" value="8" style="strokeColor=#DEEDFF" vertex="1" parent="1">
          <mxGeometry x="234.99999999999997" y="520.0000000000016" width="35" height="20" as="geometry" />
        </mxCell>
        <mxCell id="TeYNb7RfV9Psiy8Rglft-350" value="Arten von Denoising" style="align=left;strokeColor=#DEEDFF" vertex="1" parent="1">
          <mxGeometry x="270" y="520.0000000000016" width="205" height="20" as="geometry" />
        </mxCell>
        <mxCell id="TeYNb7RfV9Psiy8Rglft-351" value="1 Woche" style="strokeColor=#DEEDFF" vertex="1" parent="1">
          <mxGeometry x="475.5000000000017" y="520.0000000000015" width="70" height="20" as="geometry" />
        </mxCell>
        <mxCell id="TeYNb7RfV9Psiy8Rglft-352" value="24.03.25" style="strokeColor=#DEEDFF" vertex="1" parent="1">
          <mxGeometry x="545.500000000002" y="520.0000000000015" width="70" height="20" as="geometry" />
        </mxCell>
        <mxCell id="TeYNb7RfV9Psiy8Rglft-353" value="28.03.25" style="strokeColor=#DEEDFF" vertex="1" parent="1">
          <mxGeometry x="615.0000000000015" y="520.0000000000018" width="70" height="20" as="geometry" />
        </mxCell>
        <mxCell id="TeYNb7RfV9Psiy8Rglft-356" value="" style="shape=mxgraph.arrows.bent_right_arrow;fillColor=#AE4132;strokeColor=none;strokeWidth=2;direction=south" vertex="1" parent="1">
          <mxGeometry x="826.000000000002" y="490.99999999999966" width="10.000000000000341" height="9.99999999999983" as="geometry" />
        </mxCell>
        <mxCell id="TeYNb7RfV9Psiy8Rglft-357" value="" style="shape=mxgraph.flowchart.process;fillColor=#AE4132;strokeColor=none;strokeWidth=2;opacity=50" vertex="1" parent="1">
          <mxGeometry x="791" y="480" width="35" height="20" as="geometry" />
        </mxCell>
        <mxCell id="TeYNb7RfV9Psiy8Rglft-359" value="" style="shape=mxgraph.arrows.bent_right_arrow;fillColor=#AE4132;strokeColor=none;strokeWidth=2;direction=south" vertex="1" parent="1">
          <mxGeometry x="861.500000000002" y="509.99999999999966" width="10.000000000000341" height="9.99999999999983" as="geometry" />
        </mxCell>
        <mxCell id="TeYNb7RfV9Psiy8Rglft-360" value="" style="shape=mxgraph.flowchart.process;fillColor=#AE4132;strokeColor=none;strokeWidth=2;opacity=50" vertex="1" parent="1">
          <mxGeometry x="861" y="520" width="35" height="20" as="geometry" />
        </mxCell>
        <mxCell id="TeYNb7RfV9Psiy8Rglft-361" value="" style="shape=mxgraph.flowchart.process;fillColor=#AE4132;strokeColor=none;strokeWidth=2;opacity=50" vertex="1" parent="1">
          <mxGeometry x="896" y="560" width="70" height="20" as="geometry" />
        </mxCell>
        <mxCell id="TeYNb7RfV9Psiy8Rglft-362" value="" style="shape=mxgraph.flowchart.process;fillColor=#AE4132;strokeColor=#000000;strokeWidth=2;opacity=50" vertex="1" parent="1">
          <mxGeometry x="1177" y="660" width="104" height="20" as="geometry" />
        </mxCell>
        <mxCell id="TeYNb7RfV9Psiy8Rglft-363" value="" style="shape=mxgraph.flowchart.process;fillColor=#AE4132;strokeColor=none;strokeWidth=2;opacity=50" vertex="1" parent="1">
          <mxGeometry x="967.25" y="580" width="105" height="20" as="geometry" />
        </mxCell>
        <mxCell id="TeYNb7RfV9Psiy8Rglft-364" value="" style="shape=mxgraph.flowchart.process;fillColor=#AE4132;strokeColor=none;strokeWidth=2;opacity=50" vertex="1" parent="1">
          <mxGeometry x="1072.5" y="600" width="35" height="20" as="geometry" />
        </mxCell>
        <mxCell id="TeYNb7RfV9Psiy8Rglft-365" value="" style="shape=mxgraph.flowchart.process;fillColor=#AE4132;strokeColor=none;strokeWidth=2;opacity=50" vertex="1" parent="1">
          <mxGeometry x="1107.5" y="620" width="35" height="20" as="geometry" />
        </mxCell>
        <mxCell id="TeYNb7RfV9Psiy8Rglft-366" value="" style="shape=mxgraph.flowchart.process;fillColor=#AE4132;strokeColor=none;strokeWidth=2;opacity=50" vertex="1" parent="1">
          <mxGeometry x="1141.75" y="640" width="35" height="20" as="geometry" />
        </mxCell>
        <mxCell id="TeYNb7RfV9Psiy8Rglft-367" value="" style="shape=mxgraph.arrows.bent_right_arrow;fillColor=#AE4132;strokeColor=none;strokeWidth=2;direction=south" vertex="1" parent="1">
          <mxGeometry x="966.000000000002" y="569.9999999999997" width="10.000000000000341" height="9.99999999999983" as="geometry" />
        </mxCell>
        <mxCell id="TeYNb7RfV9Psiy8Rglft-368" value="" style="shape=mxgraph.arrows.bent_right_arrow;fillColor=#AE4132;strokeColor=none;strokeWidth=2;direction=south" vertex="1" parent="1">
          <mxGeometry x="1072.500000000002" y="589.9999999999997" width="10.000000000000341" height="9.99999999999983" as="geometry" />
        </mxCell>
        <mxCell id="TeYNb7RfV9Psiy8Rglft-369" value="" style="shape=mxgraph.arrows.bent_right_arrow;fillColor=#AE4132;strokeColor=none;strokeWidth=2;direction=south" vertex="1" parent="1">
          <mxGeometry x="1107.500000000002" y="609.9999999999997" width="10.000000000000341" height="9.99999999999983" as="geometry" />
        </mxCell>
        <mxCell id="TeYNb7RfV9Psiy8Rglft-370" value="" style="shape=mxgraph.arrows.bent_right_arrow;fillColor=#AE4132;strokeColor=none;strokeWidth=2;direction=south" vertex="1" parent="1">
          <mxGeometry x="1142.000000000002" y="629.9999999999997" width="10.000000000000341" height="9.99999999999983" as="geometry" />
        </mxCell>
        <mxCell id="TeYNb7RfV9Psiy8Rglft-375" value="" style="shape=mxgraph.flowchart.process;fillColor=#AE4132;strokeColor=none;strokeWidth=2;opacity=50" vertex="1" parent="1">
          <mxGeometry x="1177" y="680" width="70" height="20" as="geometry" />
        </mxCell>
        <mxCell id="TeYNb7RfV9Psiy8Rglft-376" value="" style="shape=mxgraph.flowchart.process;fillColor=#AE4132;strokeColor=none;strokeWidth=2;opacity=50" vertex="1" parent="1">
          <mxGeometry x="1246.5" y="700" width="35" height="20" as="geometry" />
        </mxCell>
        <mxCell id="TeYNb7RfV9Psiy8Rglft-377" value="" style="shape=mxgraph.arrows.bent_right_arrow;fillColor=#AE4132;strokeColor=none;strokeWidth=2;direction=south" vertex="1" parent="1">
          <mxGeometry x="1247.500000000002" y="689.9999999999997" width="10.000000000000341" height="9.99999999999983" as="geometry" />
        </mxCell>
        <mxCell id="TeYNb7RfV9Psiy8Rglft-410" value="" style="shape=mxgraph.flowchart.process;fillColor=#AE4132;strokeColor=none;strokeWidth=2;opacity=50" vertex="1" parent="1">
          <mxGeometry x="825.62" y="501" width="35" height="20" as="geometry" />
        </mxCell>
      </root>
    </mxGraphModel>
  </diagram>
</mxfile>
